<svg xmlns="http://www.w3.org/2000/svg" xmlns:xlink="http://www.w3.org/1999/xlink" xmlns:lucid="lucid" width="980.71" height="980.71"><g transform="translate(-257 -757)" lucid:page-tab-id="KTCUtV4~87lj"><path d="M1234.7 1247.36c0 269.16-218.18 487.35-487.34 487.35-269.16 0-487.36-218.18-487.36-487.34C260 978.2 478.2 760 747.36 760s487.35 218.2 487.35 487.36z" stroke="#54c45e" stroke-width="6" fill="#e3fae3" fill-opacity=".2"/><path d="M1123 1335.64c0 207.45-168.18 375.63-375.64 375.63-207.46 0-375.64-168.17-375.64-375.63S539.9 960 747.36 960c207.46 0 375.63 168.18 375.63 375.64z" stroke="#635dff" stroke-width="6" fill="#635dff" fill-opacity=".2"/><path d="M1000.85 1413.5c0 140-113.5 253.5-253.5 253.5s-253.5-113.5-253.5-253.5 113.5-253.5 253.5-253.5 253.5 113.5 253.5 253.5z" stroke="#d916a8" stroke-width="6" fill="#d916a8" fill-opacity=".2"/><path d="M580 808a8 8 0 0 1 8-8h322.92a8 8 0 0 1 8 8v144a8 8 0 0 1-8 8H588a8 8 0 0 1-8-8z" stroke="#000" stroke-opacity="0" fill="#fff" fill-opacity="0"/><use xlink:href="#a" transform="matrix(1,0,0,1,584.8000000000001,804.8) translate(75.50238715277779 85.2451388888889)"/><path d="M600.44 1008a8 8 0 0 1 8-8h282.04a8 8 0 0 1 8 8v144a8 8 0 0 1-8 8H608.44a8 8 0 0 1-8-8z" stroke="#000" stroke-opacity="0" fill="#fff" fill-opacity="0"/><use xlink:href="#b" transform="matrix(1,0,0,1,605.2381450927252,1004.8) translate(50.369140625 85.2451388888889)"/><path d="M600.44 1341.5a8 8 0 0 1 8-8h282.04a8 8 0 0 1 8 8v144a8 8 0 0 1-8 8H608.44a8 8 0 0 1-8-8z" stroke="#000" stroke-opacity="0" fill="#fff" fill-opacity="0"/><use xlink:href="#c" transform="matrix(1,0,0,1,605.2381450927253,1338.2929082550165) translate(47.847439236111114 85.2451388888889)"/><defs><path d="M49 0l509-1490h400L1480 0h-339l-115-346H497L386 0H49zm524-585h374c-75-213-124-402-192-666-66 268-110 453-182 666" id="d"/><path d="M572 22C302 22 117-98 78-306l279-48c29 105 101 156 224 156 114 0 185-48 185-115 0-118-228-130-337-155-215-49-322-150-322-317 0-215 187-347 470-347 265 0 424 116 466 298l-266 47c-24-76-87-130-196-130-98 0-174 46-174 113 0 56 38 95 144 117l201 40c216 44 320 143 320 302 0 220-207 367-500 367" id="e"/><path d="M628 22C291 22 81-210 81-554c0-346 210-578 547-578 336 0 547 232 547 578 0 344-211 576-547 576zm0-236c160 0 242-146 242-341 0-197-82-341-242-341S387-753 387-555c0 195 81 341 241 341" id="f"/><path d="M128 0v-1118h300V0H128zm150-1264c-91 0-165-68-165-154 0-85 74-154 165-154 90 0 165 69 165 154 0 86-75 154-165 154" id="g"/><path d="M440 22C227 22 68-92 68-313c0-250 202-322 422-343 195-21 271-24 271-105 0-95-63-149-175-149-116 0-187 57-211 129l-275-46c57-194 237-305 487-305 240 0 474 108 474 379V0H777v-155h-10C713-51 605 22 440 22zm85-211c140 0 238-93 238-211v-121c-37 26-156 42-222 51-111 16-185 59-185 149 0 87 70 132 169 132" id="h"/><path d="M683-1118v229H474v562c0 71 29 104 102 104 23 0 73-7 95-13l43 225C647 9 580 16 520 16 296 16 174-96 174-301v-588H20v-229h154v-266h300v266h209" id="i"/><path d="M428-647V0H128v-1118h283l4 231c63-156 176-245 348-245 232 0 384 159 384 421V0H847v-659c0-139-76-222-202-222-128 0-217 86-217 234" id="j"/><g id="a"><use transform="matrix(0.015190972222222224,0,0,0.015190972222222224,0,0)" xlink:href="#d"/><use transform="matrix(0.015190972222222224,0,0,0.015190972222222224,22.877604166666668,0)" xlink:href="#e"/><use transform="matrix(0.015190972222222224,0,0,0.015190972222222224,40.30164930555556,0)" xlink:href="#e"/><use transform="matrix(0.015190972222222224,0,0,0.015190972222222224,57.72569444444444,0)" xlink:href="#f"/><use transform="matrix(0.015190972222222224,0,0,0.015190972222222224,76.80555555555556,0)" xlink:href="#e"/><use transform="matrix(0.015190972222222224,0,0,0.015190972222222224,94.22960069444444,0)" xlink:href="#g"/><use transform="matrix(0.015190972222222224,0,0,0.015190972222222224,102.66059027777777,0)" xlink:href="#h"/><use transform="matrix(0.015190972222222224,0,0,0.015190972222222224,120.72265625,0)" xlink:href="#i"/><use transform="matrix(0.015190972222222224,0,0,0.015190972222222224,132.11588541666666,0)" xlink:href="#g"/><use transform="matrix(0.015190972222222224,0,0,0.015190972222222224,140.546875,0)" xlink:href="#f"/><use transform="matrix(0.015190972222222224,0,0,0.015190972222222224,159.62673611111111,0)" xlink:href="#j"/></g><path d="M625 442c-280 0-454-114-503-274l258-72c28 63 97 128 243 128 153 0 246-69 246-216v-206h-23C805-108 717-16 536-16 284-16 81-191 81-561c0-378 208-571 456-571 188 0 280 113 321 202h13v-188h295V-9c0 303-226 451-541 451zm5-686c153 0 240-119 240-319 0-198-86-329-240-329-158 0-241 137-241 329 0 195 85 319 241 319" id="k"/><path d="M128 0v-1118h290v195h12c54-169 184-238 367-200v268c-27-8-86-15-130-15-138 0-239 95-239 234V0H128" id="l"/><path d="M633 22C291 22 81-200 81-553c0-345 210-579 537-579 292 0 525 185 525 567v84H378c7 183 109 277 260 277 105 0 184-46 216-132l272 51C1071-99 893 22 633 22zM380-669h474c-15-146-94-237-233-237-143 0-229 99-241 237" id="m"/><g id="b"><use transform="matrix(0.015190972222222224,0,0,0.015190972222222224,0,0)" xlink:href="#d"/><use transform="matrix(0.015190972222222224,0,0,0.015190972222222224,22.513020833333336,0)" xlink:href="#k"/><use transform="matrix(0.015190972222222224,0,0,0.015190972222222224,42.17013888888889,0)" xlink:href="#k"/><use transform="matrix(0.015190972222222224,0,0,0.015190972222222224,61.82725694444445,0)" xlink:href="#l"/><use transform="matrix(0.015190972222222224,0,0,0.015190972222222224,73.73697916666667,0)" xlink:href="#m"/><use transform="matrix(0.015190972222222224,0,0,0.015190972222222224,92.26996527777779,0)" xlink:href="#k"/><use transform="matrix(0.015190972222222224,0,0,0.015190972222222224,111.92708333333334,0)" xlink:href="#h"/><use transform="matrix(0.015190972222222224,0,0,0.015190972222222224,129.98914930555557,0)" xlink:href="#i"/><use transform="matrix(0.015190972222222224,0,0,0.015190972222222224,141.38237847222223,0)" xlink:href="#g"/><use transform="matrix(0.015190972222222224,0,0,0.015190972222222224,149.81336805555557,0)" xlink:href="#f"/><use transform="matrix(0.015190972222222224,0,0,0.015190972222222224,168.89322916666669,0)" xlink:href="#j"/></g><path d="M786 20C389 20 94-260 94-744c0-487 299-766 692-766 339 0 597 194 641 529h-309c-28-162-156-258-326-258-233 0-388 179-388 495 0 323 157 493 387 493 170 0 298-97 328-259h309c-34 277-266 530-642 530" id="n"/><path d="M128 0v-1118h278l12 217c60-163 185-234 319-234 143 0 236 81 288 251 63-172 205-251 359-251 205 0 357 138 357 381V0h-301v-697c0-126-76-187-177-187-114 0-184 79-184 196V0H789v-705c0-109-72-179-174-179-106 0-187 74-187 208V0H128" id="o"/><path d="M128 418v-1536h295v188h14c41-89 129-202 319-202 248 0 453 193 453 575 0 372-197 576-455 576-183 0-275-108-317-198h-9v597H128zm534-640c156 0 240-139 240-336 0-196-83-334-240-334-154 0-241 131-241 334 0 202 88 336 241 336" id="p"/><g id="c"><use transform="matrix(0.015190972222222224,0,0,0.015190972222222224,0,0)" xlink:href="#n"/><use transform="matrix(0.015190972222222224,0,0,0.015190972222222224,23.014322916666668,0)" xlink:href="#f"/><use transform="matrix(0.015190972222222224,0,0,0.015190972222222224,42.094184027777786,0)" xlink:href="#o"/><use transform="matrix(0.015190972222222224,0,0,0.015190972222222224,70.48611111111111,0)" xlink:href="#p"/><use transform="matrix(0.015190972222222224,0,0,0.015190972222222224,90.09765625,0)" xlink:href="#f"/><use transform="matrix(0.015190972222222224,0,0,0.015190972222222224,109.17751736111111,0)" xlink:href="#e"/><use transform="matrix(0.015190972222222224,0,0,0.015190972222222224,126.60156250000001,0)" xlink:href="#g"/><use transform="matrix(0.015190972222222224,0,0,0.015190972222222224,135.03255208333334,0)" xlink:href="#i"/><use transform="matrix(0.015190972222222224,0,0,0.015190972222222224,146.42578125,0)" xlink:href="#g"/><use transform="matrix(0.015190972222222224,0,0,0.015190972222222224,154.85677083333334,0)" xlink:href="#f"/><use transform="matrix(0.015190972222222224,0,0,0.015190972222222224,173.93663194444446,0)" xlink:href="#j"/></g></defs></g></svg>